<?xml version="1.0" encoding="utf-8"?>
<!-- Generator: Adobe Illustrator 25.3.1, SVG Export Plug-In . SVG Version: 6.00 Build 0)  -->
<svg version="1.1" id="Layer_1" xmlns="http://www.w3.org/2000/svg" xmlns:xlink="http://www.w3.org/1999/xlink" x="0px" y="0px"
	 viewBox="0 0 525 294" style="enable-background:new 0 0 525 294;" xml:space="preserve">
<style type="text/css">
	.st0{fill:url(#SVGID_1_);}
</style>
<linearGradient id="SVGID_1_" gradientUnits="userSpaceOnUse" x1="18.008" y1="2025.5555" x2="504.1404" y2="2025.5555" gradientTransform="matrix(1 0 0 1 0 -1876)">
	<stop  offset="0" style="stop-color:#A6CE39"/>
	<stop  offset="1" style="stop-color:#11B04B"/>
</linearGradient>
<path class="st0" d="M490.7,20.1H270c-94.3,0-174.7,42.7-207.7,129.2L18.7,263.5c-2.8,7.3,3,15.6,11,15.6h224.2
	c93.7,0,175.5-55.6,208.3-141.5L503.3,38C506.5,29.5,499.9,20.1,490.7,20.1z M420.7,119.3c-26.7,70-93.3,115.2-169.7,115.2H99.3
	c35-39.9,85.5-62.7,138.5-62.5h30.7c24.6,0,58.9-14.4,67.9-44.5H235.5c-47.4-0.2-93.7,14.5-132.4,42l1-2.5
	c26.8-70.3,91.7-102.5,168.3-102.5h172.3L420.7,119.3z"/>
</svg>
